<svg width="1581" height="884" viewBox="0 0 1581 884" fill="none" xmlns="http://www.w3.org/2000/svg">
<g clip-path="url(#clip0_1_4)">
<rect width="1581" height="884" fill="white"/>
<path d="M264.844 128.993L-71.9031 1007.06L-307.742 578.881L264.844 128.993Z" fill="#7D3C01"/>
<path d="M1326.33 128.999L1663.07 1007.07L1898.91 578.887L1326.33 128.999Z" fill="#7D3C01"/>
<ellipse cx="223.57" cy="74.6829" rx="511.5" ry="312" transform="rotate(119.144 223.57 74.6829)" fill="#008000"/>
<path d="M452.709 129.106L-185.272 820.033L-245.774 334.959L452.709 129.106Z" fill="#008000"/>
<circle cx="310" cy="84" r="45" fill="#FFA500"/>
<circle cx="132" cy="416" r="45" fill="#FFA500"/>
<circle cx="87" cy="129" r="45" fill="#FFA500"/>
<circle cx="265" cy="281" r="45" fill="#FFA500"/>
<ellipse cx="511.5" cy="312" rx="511.5" ry="312" transform="matrix(0.487 0.873402 0.873402 -0.487 846 -220.112)" fill="#008000"/>
<path d="M1138.46 129.112L1776.44 820.039L1836.95 334.966L1138.46 129.112Z" fill="#008000"/>
<circle cx="45" cy="45" r="45" transform="matrix(-1 0 0 1 1326.17 39.0062)" fill="#FFA500"/>
<circle cx="45" cy="45" r="45" transform="matrix(-1 0 0 1 1549.17 39.0062)" fill="#FFA500"/>
<circle cx="45" cy="45" r="45" transform="matrix(-1 0 0 1 1542.17 236.006)" fill="#FFA500"/>
</g>
<defs>
<clipPath id="clip0_1_4">
<rect width="1581" height="884" fill="white"/>
</clipPath>
</defs>
</svg>
